<?xml version="1.0" encoding="UTF-8" standalone="no"?>
<!DOCTYPE svg PUBLIC "-//W3C//DTD SVG 1.1//EN" "http://www.w3.org/Graphics/SVG/1.1/DTD/svg11.dtd">
<svg width="100%" height="100%" viewBox="0 0 71 71" version="1.1" xmlns="http://www.w3.org/2000/svg" xmlns:xlink="http://www.w3.org/1999/xlink" xml:space="preserve" xmlns:serif="http://www.serif.com/" style="fill-rule:evenodd;clip-rule:evenodd;stroke-linejoin:round;stroke-miterlimit:2;">
    <g transform="matrix(1,0,0,1,-212.056,-1126.98)">
        <g transform="matrix(0.791197,0,0,0.801842,72.5589,1096.46)">
            <path d="M265.526,64.576C265.526,49.931 253.494,38.06 238.654,38.06L203.184,38.06C188.341,38.06 176.311,49.931 176.311,64.576L176.311,99.575C176.311,114.218 188.341,126.091 203.184,126.091L238.654,126.091C253.494,126.091 265.526,114.218 265.526,99.575L265.526,64.576Z" style="fill:rgb(58,57,59);"/>
            <path d="M257.109,99.575C257.109,109.632 248.846,117.786 238.654,117.786L203.184,117.786C192.992,117.786 184.728,109.632 184.728,99.575L184.728,64.576C184.728,54.519 192.992,46.366 203.184,46.366L238.654,46.366C248.846,46.366 257.109,54.519 257.109,64.576L257.109,99.575Z" style="fill:rgb(201,201,201);"/>
            <g transform="matrix(0.412882,0,0,0.4074,194.672,62.4472)">
                <path d="M107.7,8.07C99.347,4.246 90.528,1.533 81.47,0C80.23,2.216 79.109,4.496 78.11,6.83C68.461,5.376 58.649,5.376 49,6.83C48.001,4.496 46.879,2.216 45.64,-0C36.576,1.546 27.752,4.265 19.39,8.09C2.79,32.65 -1.71,56.6 0.54,80.21C10.261,87.392 21.143,92.855 32.71,96.36C35.315,92.857 37.62,89.14 39.6,85.25C35.838,83.845 32.208,82.112 28.75,80.07C29.66,79.41 30.55,78.73 31.41,78.07C51.768,87.644 75.372,87.644 95.73,78.07C96.6,78.78 97.49,79.46 98.39,80.07C94.926,82.115 91.288,83.852 87.52,85.26C89.498,89.149 91.803,92.862 94.41,96.36C105.987,92.869 116.877,87.409 126.6,80.22C129.24,52.84 122.09,29.11 107.7,8.07ZM42.45,65.69C36.18,65.69 31,60 31,53C31,46 36,40.26 42.43,40.26C48.86,40.26 54,46 53.89,53C53.78,60 48.84,65.69 42.45,65.69ZM84.69,65.69C78.41,65.69 73.25,60 73.25,53C73.25,46 78.25,40.26 84.69,40.26C91.13,40.26 96.23,46 96.12,53C96.01,60 91.08,65.69 84.69,65.69Z" style="fill:rgb(58,57,59);fill-rule:nonzero;"/>
            </g>
        </g>
    </g>
</svg>
