<?xml version="1.0" encoding="UTF-8" standalone="no"?>
<!DOCTYPE svg PUBLIC "-//W3C//DTD SVG 1.1//EN" "http://www.w3.org/Graphics/SVG/1.1/DTD/svg11.dtd">
<svg width="100%" height="100%" viewBox="0 0 71 71" version="1.1" xmlns="http://www.w3.org/2000/svg" xmlns:xlink="http://www.w3.org/1999/xlink" xml:space="preserve" xmlns:serif="http://www.serif.com/" style="fill-rule:evenodd;clip-rule:evenodd;stroke-linejoin:round;stroke-miterlimit:2;">
    <g transform="matrix(1,0,0,1,-212.056,-1031.1)">
        <g transform="matrix(0.791197,0,0,0.801842,72.5589,1000.58)">
            <path d="M265.526,64.576C265.526,49.931 253.494,38.06 238.654,38.06L203.184,38.06C188.341,38.06 176.311,49.931 176.311,64.576L176.311,99.575C176.311,114.218 188.341,126.091 203.184,126.091L238.654,126.091C253.494,126.091 265.526,114.218 265.526,99.575L265.526,64.576Z" style="fill:rgb(58,57,59);"/>
            <path d="M257.109,99.575C257.109,109.632 248.846,117.786 238.654,117.786L203.184,117.786C192.992,117.786 184.728,109.632 184.728,99.575L184.728,64.576C184.728,54.519 192.992,46.366 203.184,46.366L238.654,46.366C248.846,46.366 257.109,54.519 257.109,64.576L257.109,99.575Z" style="fill:rgb(201,201,201);"/>
            <g id="Path-3" transform="matrix(0.0811142,0,0,0.0800374,183.566,39.9761)">
                <path d="M226.328,494.722C372.089,431.217 469.285,389.35 517.917,369.122C656.773,311.367 685.625,301.335 704.431,301.004C708.568,300.931 717.816,301.956 723.806,306.817C728.865,310.921 730.257,316.466 730.923,320.357C731.589,324.249 732.418,333.114 731.759,340.041C724.234,419.102 691.675,610.965 675.111,699.515C668.102,736.984 654.301,749.548 640.941,750.777C611.905,753.449 589.856,731.588 561.733,713.153C517.727,684.306 492.866,666.349 450.15,638.2C400.784,605.669 432.786,587.789 460.919,558.569C468.282,550.921 596.215,434.556 598.691,424C599.001,422.68 599.288,417.759 596.365,415.16C593.441,412.562 589.126,413.45 586.012,414.157C581.599,415.159 511.298,461.625 375.11,553.556C355.155,567.259 337.081,573.935 320.887,573.585C303.034,573.199 268.693,563.491 243.164,555.192C211.851,545.014 186.964,539.633 189.132,522.346C190.26,513.343 202.659,504.135 226.328,494.722Z" style="fill:rgb(58,57,59);"/>
            </g>
        </g>
    </g>
</svg>
