<?xml version="1.0" encoding="UTF-8" standalone="no"?>
<!DOCTYPE svg PUBLIC "-//W3C//DTD SVG 1.1//EN" "http://www.w3.org/Graphics/SVG/1.1/DTD/svg11.dtd">
<svg width="100%" height="100%" viewBox="0 0 71 71" version="1.1" xmlns="http://www.w3.org/2000/svg" xmlns:xlink="http://www.w3.org/1999/xlink" xml:space="preserve" xmlns:serif="http://www.serif.com/" style="fill-rule:evenodd;clip-rule:evenodd;stroke-linejoin:round;stroke-miterlimit:2;">
    <g transform="matrix(1,0,0,1,-212.056,-769.695)">
        <g transform="matrix(0.791197,0,0,0.801842,72.5589,739.176)">
            <path d="M265.526,64.576C265.526,49.931 253.494,38.06 238.654,38.06L203.184,38.06C188.341,38.06 176.311,49.931 176.311,64.576L176.311,99.575C176.311,114.218 188.341,126.091 203.184,126.091L238.654,126.091C253.494,126.091 265.526,114.218 265.526,99.575L265.526,64.576Z" style="fill:rgb(58,57,59);"/>
            <path d="M257.109,99.575C257.109,109.632 248.846,117.786 238.654,117.786L203.184,117.786C192.992,117.786 184.728,109.632 184.728,99.575L184.728,64.576C184.728,54.519 192.992,46.366 203.184,46.366L238.654,46.366C248.846,46.366 257.109,54.519 257.109,64.576L257.109,99.575Z" style="fill:rgb(201,201,201);"/>
            <g transform="matrix(1.26391,0,0,1.24713,-91.7077,-921.847)">
                <path d="M236.644,783.922L229.275,791.291L229.275,818.626L238.295,818.626L238.295,826.055L245.782,818.568L251.933,818.568L265.424,805.077L265.424,783.922L236.644,783.922ZM262.289,803.593L256.374,809.508L250.322,809.508L245.055,814.774L245.055,809.469L238.295,809.469L238.295,786.987L262.289,786.987L262.289,803.593ZM249.457,801.294L246.549,801.294L246.549,792.097L249.457,792.097L249.457,801.294ZM257.789,801.294L254.881,801.294L254.881,792.097L257.789,792.097L257.789,801.294Z" style="fill:rgb(58,57,59);fill-rule:nonzero;"/>
            </g>
        </g>
    </g>
</svg>
