<?xml version="1.0" encoding="UTF-8" standalone="no"?>
<!DOCTYPE svg PUBLIC "-//W3C//DTD SVG 1.1//EN" "http://www.w3.org/Graphics/SVG/1.1/DTD/svg11.dtd">
<svg width="100%" height="100%" viewBox="0 0 499 241" version="1.1" xmlns="http://www.w3.org/2000/svg" xmlns:xlink="http://www.w3.org/1999/xlink" xml:space="preserve" xmlns:serif="http://www.serif.com/" style="fill-rule:evenodd;clip-rule:evenodd;stroke-linejoin:round;stroke-miterlimit:2;">
    <g transform="matrix(1,0,0,1,-150.698,-75.7525)">
        <g transform="matrix(1,0,0,1,0,-13.0018)">
            <g transform="matrix(2.03477,0,0,2.03477,281.716,37.0428)">
                <path d="M58.132,52.698L34.8,32.223L40.774,25.414L58.132,40.646L75.489,25.414L81.464,32.223L58.132,52.698Z" style="fill:rgb(227,228,229);fill-rule:nonzero;"/>
                <path d="M81.464,57.802L75.489,50.993L58.132,66.225L40.774,50.993L34.799,57.802L53.602,74.302L53.602,90.849L62.661,90.849L62.661,74.303L81.464,57.802Z" style="fill:rgb(227,228,229);fill-rule:nonzero;"/>
            </g>
            <g transform="matrix(7.69176,0,0,7.69176,-1605.62,-4855.52)">
                <text x="227.977px" y="674.003px" style="font-family:'PequenaPro-Regular';font-size:12px;fill:rgb(227,228,229);">Yubo Danbe</text>
            </g>
        </g>
    </g>
</svg>
