<?xml version="1.0" encoding="UTF-8" standalone="no"?>
<!DOCTYPE svg PUBLIC "-//W3C//DTD SVG 1.1//EN" "http://www.w3.org/Graphics/SVG/1.1/DTD/svg11.dtd">
<svg width="100%" height="100%" viewBox="0 0 71 71" version="1.1" xmlns="http://www.w3.org/2000/svg" xmlns:xlink="http://www.w3.org/1999/xlink" xml:space="preserve" xmlns:serif="http://www.serif.com/" style="fill-rule:evenodd;clip-rule:evenodd;stroke-linejoin:round;stroke-miterlimit:2;">
    <g transform="matrix(1,0,0,1,-212.056,-900.396)">
        <g transform="matrix(0.791197,0,0,0.801842,72.5589,869.878)">
            <path d="M265.526,64.576C265.526,49.931 253.494,38.06 238.654,38.06L203.184,38.06C188.341,38.06 176.311,49.931 176.311,64.576L176.311,99.575C176.311,114.218 188.341,126.091 203.184,126.091L238.654,126.091C253.494,126.091 265.526,114.218 265.526,99.575L265.526,64.576Z" style="fill:rgb(58,57,59);"/>
            <path d="M257.109,99.575C257.109,109.632 248.846,117.786 238.654,117.786L203.184,117.786C192.992,117.786 184.728,109.632 184.728,99.575L184.728,64.576C184.728,54.519 192.992,46.366 203.184,46.366L238.654,46.366C248.846,46.366 257.109,54.519 257.109,64.576L257.109,99.575Z" style="fill:rgb(201,201,201);"/>
            <g transform="matrix(0.400189,0,0,0.394876,196.61,64.9064)">
                <path d="M48.593,61.704L48.593,25.258L80.155,43.481L48.593,61.704ZM118.946,14.24C117.549,9.013 113.433,4.897 108.206,3.5C98.731,0.961 60.742,0.961 60.742,0.961C60.742,0.961 22.753,0.961 13.278,3.5C8.052,4.897 3.935,9.013 2.538,14.24C0,23.714 0,43.481 0,43.481C0,43.481 0,63.248 2.538,72.721C3.935,77.948 8.052,82.065 13.278,83.462C22.753,86 60.742,86 60.742,86C60.742,86 98.731,86 108.206,83.462C113.433,82.065 117.549,77.948 118.946,72.721C121.485,63.248 121.485,43.481 121.485,43.481C121.485,43.481 121.485,23.714 118.946,14.24Z" style="fill:rgb(58,57,59);fill-rule:nonzero;"/>
            </g>
        </g>
    </g>
</svg>
