<?xml version="1.0" encoding="UTF-8" standalone="no"?>
<!DOCTYPE svg PUBLIC "-//W3C//DTD SVG 1.1//EN" "http://www.w3.org/Graphics/SVG/1.1/DTD/svg11.dtd">
<svg width="100%" height="100%" viewBox="0 0 71 71" version="1.1" xmlns="http://www.w3.org/2000/svg" xmlns:xlink="http://www.w3.org/1999/xlink" xml:space="preserve" xmlns:serif="http://www.serif.com/" style="fill-rule:evenodd;clip-rule:evenodd;stroke-linejoin:round;stroke-miterlimit:2;">
    <g transform="matrix(1,0,0,1,-212.056,-641.941)">
        <g transform="matrix(0.791197,0,0,0.801842,72.5589,611.422)">
            <path d="M265.526,64.576C265.526,49.931 253.494,38.06 238.654,38.06L203.184,38.06C188.341,38.06 176.311,49.931 176.311,64.576L176.311,99.575C176.311,114.218 188.341,126.091 203.184,126.091L238.654,126.091C253.494,126.091 265.526,114.218 265.526,99.575L265.526,64.576Z" style="fill:rgb(58,57,59);"/>
            <path d="M257.109,99.575C257.109,109.632 248.846,117.786 238.654,117.786L203.184,117.786C192.992,117.786 184.728,109.632 184.728,99.575L184.728,64.576C184.728,54.519 192.992,46.366 203.184,46.366L238.654,46.366C248.846,46.366 257.109,54.519 257.109,64.576L257.109,99.575Z" style="fill:rgb(201,201,201);"/>
            <path d="M221.069,60.903C208.924,60.903 199.038,70.656 199.038,82.645C199.038,94.631 208.924,104.383 221.069,104.383C233.217,104.383 243.103,94.631 243.103,82.645C243.103,70.656 233.217,60.903 221.069,60.903Z" style="fill:rgb(58,57,59);"/>
            <path d="M221.069,96.57C213.287,96.57 206.959,90.323 206.959,82.645C206.959,74.966 213.287,68.719 221.069,68.719C228.854,68.719 235.183,74.966 235.183,82.645C235.183,90.323 228.854,96.57 221.069,96.57Z" style="fill:rgb(201,201,201);"/>
            <path d="M244.387,54.269C241.493,54.269 239.143,56.585 239.143,59.443C239.143,62.301 241.493,64.617 244.387,64.617C247.283,64.617 249.633,62.301 249.633,59.443C249.633,56.585 247.283,54.269 244.387,54.269Z" style="fill:rgb(58,57,59);"/>
        </g>
    </g>
</svg>
