<?xml version="1.0" encoding="UTF-8" standalone="no"?>
<!DOCTYPE svg PUBLIC "-//W3C//DTD SVG 1.1//EN" "http://www.w3.org/Graphics/SVG/1.1/DTD/svg11.dtd">
<svg width="100%" height="100%" viewBox="0 0 499 241" version="1.1" xmlns="http://www.w3.org/2000/svg" xmlns:xlink="http://www.w3.org/1999/xlink" xml:space="preserve" xmlns:serif="http://www.serif.com/" style="fill-rule:evenodd;clip-rule:evenodd;stroke-linejoin:round;stroke-miterlimit:2;">
    <g transform="matrix(1,0,0,1,-0.00278741,-0.00014478)">
        <path d="M2.395,175.107L16.979,175.107C15.994,180.03 15.502,184.83 15.502,189.506C15.502,193.014 16.117,195.921 17.348,198.229C18.579,200.536 20.302,201.752 22.517,201.875C24.732,201.998 26.517,200.982 27.87,198.829C29.224,196.675 29.963,193.844 30.086,190.337C30.209,185.66 30.024,181.599 29.532,178.153L29.255,176.03L44.854,176.676C45.715,181.661 45.992,186.245 45.684,190.429C45.5,196.706 44.238,201.844 41.9,205.844C39.377,210.089 35.408,212.92 29.993,214.335L31.101,238.98L14.948,240.549L15.502,214.612C10.579,213.689 6.98,211.812 4.703,208.982C2.426,206.151 0.98,202.275 0.365,197.352C-0.497,190.645 0.18,183.23 2.395,175.107ZM369.846,202.521C366.092,202.705 363.723,204.674 362.739,208.428C362,211.012 361.754,214.335 362,218.397L363.108,238.703L348.34,239.534L347.694,222.273L347.694,216.089C347.694,215.166 347.724,214.181 347.786,213.135C347.786,212.212 348.032,210.213 348.524,207.136C348.648,206.151 349.263,204.274 350.37,201.505C351.047,199.782 352.216,198.029 353.878,196.244C358.185,191.814 363.723,189.599 370.492,189.599C377.63,189.722 382.968,191.891 386.506,196.106C390.045,200.321 391.875,206.213 391.998,213.781L392.091,240.457L377.692,239.995C377.938,229.842 377.968,222.581 377.784,218.212C377.599,213.781 377.322,210.797 376.953,209.259C375.846,204.951 373.477,202.705 369.846,202.521ZM233.702,237.226L233.333,178.43L235.548,177.599C239.917,176.123 243.947,175.138 247.639,174.646C250.654,174.154 253.7,173.969 256.777,174.092C265.146,174.215 271.391,176.43 275.514,180.738C280.745,186.091 283.268,194.552 283.083,206.121C282.898,216.766 280.314,224.888 275.33,230.488C270.038,236.518 262.777,239.749 253.547,240.18C246.962,240.487 240.348,239.503 233.702,237.226ZM81.128,209.443L81.682,192.737L96.542,191.445L95.435,217.012C95.25,222.119 96.081,225.258 97.927,226.427C99.035,227.165 100.634,227.534 102.727,227.534L99.681,240.087C95.989,240.087 92.881,239.441 90.358,238.149C88.081,236.98 86.574,235.472 85.835,233.626C84.482,235.349 82.482,236.841 79.836,238.103C77.19,239.364 74.39,239.995 71.436,239.995C64.422,239.995 59.283,237.964 56.022,233.903C54.484,231.873 53.407,229.534 52.792,226.888C52.115,224.365 51.715,222.119 51.592,220.15C51.469,217.812 51.407,215.228 51.407,212.397C51.284,207.659 51.746,200.059 52.792,189.599L67.468,190.983C66.791,200.213 66.421,205.905 66.36,208.059C65.991,214.212 66.145,218.735 66.821,221.627C67.806,225.75 69.929,227.811 73.19,227.811C75.713,227.811 77.498,226.919 78.544,225.135C79.774,223.104 80.513,221.073 80.759,219.043C81.005,216.52 81.128,214.274 81.128,212.305L81.128,209.443ZM467.685,217.474C467.624,220.55 468.762,223.135 471.1,225.227C473.069,226.888 475.838,227.719 479.407,227.719C484.515,227.596 488.791,225.535 492.237,221.535L498.606,231.134C497.068,233.226 495.006,234.98 492.422,236.395C488.422,238.734 483.776,239.933 478.484,239.995C470.854,240.118 464.762,237.995 460.209,233.626C455.409,229.011 453.009,222.581 453.009,214.335C453.009,210.089 453.655,206.259 454.948,202.844C456.24,199.429 457.87,196.798 459.84,194.952C461.686,193.229 463.87,191.845 466.393,190.799C470.085,189.322 473.9,188.583 477.838,188.583C482.884,188.583 487.038,189.66 490.299,191.814C492.576,193.291 494.314,195.414 495.514,198.183C496.714,200.952 497.098,203.813 496.668,206.767C496.299,209.72 495.145,212.151 493.206,214.058C491.268,215.966 489.007,217.227 486.422,217.843C484.022,218.52 481.377,218.797 478.484,218.673C474.977,218.673 471.377,218.273 467.685,217.474ZM314.188,188.676C321.88,188.737 327.726,191.352 331.726,196.521C335.664,201.629 337.356,208.182 336.802,216.181C336.002,220.612 336.371,223.658 337.91,225.319C339.017,226.611 341.171,227.442 344.371,227.811L342.525,239.257C341.048,239.749 339.294,239.995 337.264,239.995C334.741,239.995 332.71,239.595 331.172,238.795C329.141,237.811 327.757,236.18 327.018,233.903C323.449,238.026 318.404,240.026 311.881,239.903C304.374,239.903 298.528,237.257 294.344,231.965C290.713,227.35 288.867,221.719 288.806,215.074C288.744,211.136 289.406,207.397 290.79,203.859C292.175,200.321 294.159,197.352 296.744,194.952C301.297,190.706 307.112,188.614 314.188,188.676ZM105.957,214.981L105.219,164.677L121.741,163.662C121.433,173.261 121.248,182.953 121.187,192.737C124.448,189.968 128.725,188.583 134.017,188.583C140.539,188.706 145.616,190.891 149.246,195.137C153.615,200.49 155.492,207.782 154.877,217.012C154.384,223.35 151.985,228.704 147.677,233.072C143.001,237.687 136.816,239.995 129.125,239.995C121.433,239.995 115.464,237.349 111.218,232.057C108.08,227.873 106.326,222.181 105.957,214.981ZM398.367,214.981L397.629,164.677L414.151,163.662C413.843,173.261 413.658,182.953 413.597,192.737C416.858,189.968 421.135,188.583 426.427,188.583C432.949,188.706 438.026,190.891 441.656,195.137C446.025,200.49 447.902,207.782 447.287,217.012C446.794,223.35 444.395,228.704 440.087,233.072C435.411,237.687 429.226,239.995 421.535,239.995C413.843,239.995 407.874,237.349 403.628,232.057C400.49,227.873 398.736,222.181 398.367,214.981ZM185.798,188.491C192.689,188.614 198.197,190.737 202.319,194.86C206.996,199.475 209.304,205.874 209.242,214.058C209.181,221.504 206.719,227.78 201.858,232.888C197.735,237.257 192.628,239.595 186.536,239.903C178.783,240.21 172.629,238.241 168.076,233.995C163.461,229.873 160.999,223.935 160.692,216.181C160.199,208.92 162.322,202.444 167.06,196.752C171.799,191.06 178.044,188.306 185.798,188.491ZM131.617,201.69C130.755,201.69 129.832,201.844 128.848,202.152C127.863,202.459 126.725,203.013 125.433,203.813C124.14,204.613 123.094,205.982 122.294,207.92C121.494,209.859 121.125,212.243 121.187,215.074C121.31,223.012 124.202,227.257 129.863,227.811C133.124,228.057 135.724,227.073 137.663,224.858C139.601,222.642 140.662,219.689 140.847,215.997C141.155,211.874 140.524,208.49 138.955,205.844C137.386,203.198 134.94,201.813 131.617,201.69ZM424.027,201.69C423.165,201.69 422.242,201.844 421.258,202.152C420.273,202.459 419.135,203.013 417.843,203.813C416.55,204.613 415.504,205.982 414.704,207.92C413.904,209.859 413.535,212.243 413.597,215.074C413.72,223.012 416.612,227.257 422.273,227.811C425.534,228.057 428.134,227.073 430.072,224.858C432.011,222.642 433.072,219.689 433.257,215.997C433.565,211.874 432.934,208.49 431.365,205.844C429.796,203.198 427.35,201.813 424.027,201.69ZM313.542,201.598C310.343,201.598 307.835,202.813 306.02,205.244C304.205,207.674 303.297,210.736 303.297,214.428C303.235,218.12 304.081,221.227 305.835,223.75C307.589,226.273 310.004,227.565 313.081,227.627C316.281,227.688 318.742,226.658 320.465,224.535C322.188,222.412 323.142,219.566 323.326,215.997C323.511,212.12 322.772,208.736 321.111,205.844C319.45,203.013 316.927,201.598 313.542,201.598ZM185.705,201.505C185.028,201.505 184.321,201.567 183.582,201.69C182.844,201.813 181.906,202.136 180.767,202.659C179.629,203.182 178.644,203.875 177.814,204.736C176.983,205.597 176.275,206.874 175.691,208.566C175.106,210.259 174.844,212.243 174.906,214.52C174.968,218.581 175.937,221.781 177.814,224.119C179.69,226.458 182.044,227.596 184.875,227.534C187.89,227.534 190.336,226.319 192.212,223.888C194.089,221.458 194.997,218.15 194.935,213.966C194.874,210.459 194.028,207.52 192.397,205.151C190.766,202.782 188.536,201.567 185.705,201.505ZM248.47,188.491L249.024,226.242C250.562,226.673 252.347,226.796 254.377,226.611C256.408,226.427 258.1,225.996 259.454,225.319C264.869,222.489 267.515,215.751 267.392,205.105C267.33,198.829 266.1,194.121 263.7,190.983C261.977,188.706 259.515,187.476 256.316,187.291C253.116,187.168 250.501,187.568 248.47,188.491ZM467.87,208.151C471.254,209.074 474.946,209.136 478.946,208.336C481.284,207.659 482.546,206.428 482.73,204.644C482.853,203.167 482.376,201.921 481.3,200.905C480.223,199.89 478.761,199.383 476.915,199.383C474.515,199.444 472.469,200.259 470.777,201.829C469.085,203.398 468.116,205.505 467.87,208.151ZM296.779,65.902L284.621,52.048L249.303,83.041L213.984,52.048L201.826,65.902L240.086,99.476L240.086,133.145L258.519,133.145L258.519,99.478L296.779,65.902ZM249.303,55.517L201.828,13.855L213.984,0L249.303,30.994L284.621,0L296.779,13.855L249.303,55.517Z" style="fill:rgb(227,228,229);fill-rule:nonzero;"/>
    </g>
</svg>
